HIERARCHY
ROOT Model_Hips
{
	OFFSET 0.000000 96.915077 0.000000
	CHANNELS 6 Xposition Yposition Zposition Xrotation Yrotation Zrotation
	JOINT Model_Spine
	{
		OFFSET 0.000000 11.137703 -1.289900
		CHANNELS 3 Xrotation Yrotation Zrotation
		JOINT Model_Spine1
		{
			OFFSET 0.000000 12.993942 -1.504922
			CHANNELS 3 Xrotation Yrotation Zrotation
			JOINT Model_Spine2
			{
				OFFSET 0.000000 14.850220 -1.719911
				CHANNELS 3 Xrotation Yrotation Zrotation
				JOINT Model_Neck
				{
					OFFSET 0.000000 16.706543 -1.934903
					CHANNELS 3 Xrotation Yrotation Zrotation
					JOINT Model_Head
					{
						OFFSET 0.000000 10.471298 2.002100
						CHANNELS 3 Xrotation Yrotation Zrotation
						JOINT Model_HeadTop_End
						{
							OFFSET 0.000000 20.842606 3.985100
							CHANNELS 3 Xrotation Yrotation Zrotation
							End Site
							{
								OFFSET 0.000000 21.220154 0.000000
							}
						}
					}
				}
				JOINT Model_LeftShoulder
				{
					OFFSET 7.008500 14.768600 -1.919946
					CHANNELS 3 Xrotation Yrotation Zrotation
					JOINT Model_LeftArm
					{
						OFFSET 14.126271 -3.718048 0.029937
						CHANNELS 3 Xrotation Yrotation Zrotation
						JOINT Model_LeftForeArm
						{
							OFFSET 28.282801 0.000000 0.000000
							CHANNELS 3 Xrotation Yrotation Zrotation
							JOINT Model_LeftHand
							{
								OFFSET 26.204689 0.000000 0.000000
								CHANNELS 3 Xrotation Yrotation Zrotation
								End Site
								{
									OFFSET 26.204704 0.000000 0.000000
								}
							}
						}
					}
				}
				JOINT Model_RightShoulder
				{
					OFFSET -7.008500 14.768555 -1.949840
					CHANNELS 3 Xrotation Yrotation Zrotation
					JOINT Model_RightArm
					{
						OFFSET -14.126281 -3.718018 -0.029932
						CHANNELS 3 Xrotation Yrotation Zrotation
						JOINT Model_RightForeArm
						{
							OFFSET -28.283798 0.000000 -0.000001
							CHANNELS 3 Xrotation Yrotation Zrotation
							JOINT Model_RightHand
							{
								OFFSET -26.204193 0.000000 -0.000001
								CHANNELS 3 Xrotation Yrotation Zrotation
								End Site
								{
									OFFSET -26.204208 0.000000 -0.000001
								}
							}
						}
					}
				}
			}
		}
	}
	JOINT Model_LeftUpLeg
	{
		OFFSET 8.327700 -6.193199 -0.402800
		CHANNELS 3 Xrotation Yrotation Zrotation
		JOINT Model_LeftLeg
		{
			OFFSET 0.735802 -42.108742 -0.610721
			CHANNELS 3 Xrotation Yrotation Zrotation
			JOINT Model_LeftFoot
			{
				OFFSET -0.735806 -36.833748 -0.172876
				CHANNELS 3 Xrotation Yrotation Zrotation
				JOINT Model_LeftToeBase
				{
					OFFSET -0.565857 -11.977769 16.297714
					CHANNELS 3 Xrotation Yrotation Zrotation
					JOINT Model_LeftToe_End
					{
						OFFSET -0.111712 -0.312793 7.857784
						CHANNELS 3 Xrotation Yrotation Zrotation
						End Site
						{
							OFFSET -0.111712 -0.312793 7.857784
						}
					}
				}
			}
		}
	}
	JOINT Model_RightUpLeg
	{
		OFFSET -8.327700 -6.193199 -0.516500
		CHANNELS 3 Xrotation Yrotation Zrotation
		JOINT Model_RightLeg
		{
			OFFSET -0.735785 -42.108738 -0.434061
			CHANNELS 3 Xrotation Yrotation Zrotation
			JOINT Model_RightFoot
			{
				OFFSET 0.735776 -36.833748 -0.021630
				CHANNELS 3 Xrotation Yrotation Zrotation
				JOINT Model_RightToeBase
				{
					OFFSET 0.565817 -11.977745 15.903093
					CHANNELS 3 Xrotation Yrotation Zrotation
					JOINT Model_RightToe_End
					{
						OFFSET 0.111702 -0.312791 7.811342
						CHANNELS 3 Xrotation Yrotation Zrotation
						End Site
						{
							OFFSET 0.111702 -0.312791 7.811342
						}
					}
				}
			}
		}
	}
}
MOTION
Frames: 13
Frame Time: 0.016667
-4.186383 96.233055 -10.360281 -6.472420 42.020577 1.387904 3.411911 2.749417 2.447721 1.013624 1.895720 5.133916 1.063812 1.436604 0.929389 7.597224 6.076866 -1.622334 7.900162 5.728462 -1.768372 -0.000001 0.000002 -0.000001 3.496528 -8.937386 -20.036377 13.468097 -17.525951 -58.805422 -0.000013 -22.019463 -0.000025 -0.000002 0.000000 -0.000000 1.144962 14.921759 15.003561 24.880967 13.774108 46.688933 0.000001 14.804179 -0.000012 -0.000001 -0.000000 0.000001 -14.829394 33.838045 11.721427 21.593401 9.751774 7.015517 -5.465899 16.592382 -6.409757 -4.928536 -0.000022 0.000001 0.000001 -0.000001 -0.000000 -19.914407 -19.736622 -5.799391 46.429311 -2.272962 2.641458 -2.922557 -30.116995 -1.867335 -12.809931 -0.385478 4.480950 -0.000000 0.000000 0.000001 
-4.210048 96.291534 -10.060534 -6.838043 44.172483 1.677677 3.464727 2.644676 2.525736 1.038540 1.852209 5.049801 1.099832 1.386853 0.866331 7.494691 5.698127 -1.510155 7.774675 5.364522 -1.638921 0.000001 -0.000001 -0.000000 3.807696 -8.435658 -20.326115 13.537357 -18.080774 -58.894618 0.000002 -21.470522 0.000010 0.000000 -0.000000 0.000000 1.137598 14.836105 15.042138 24.365141 13.830485 47.033577 -0.000009 14.515178 0.000010 -0.000000 -0.000000 -0.000000 -14.796826 33.806114 11.704259 21.061095 9.733024 7.306102 -5.228192 14.462490 -6.391612 -4.928534 -0.000046 -0.000004 -0.000000 0.000000 -0.000000 -19.760005 -18.890324 -5.338263 46.098354 -1.306894 2.370644 -1.934781 -28.820738 -0.648650 -13.070077 -0.458431 4.902288 -0.000000 -0.000000 -0.000000 
-4.203918 96.359024 -9.691425 -7.243305 46.323538 2.021932 3.549804 2.567586 2.556958 1.091085 1.865295 4.927427 1.164827 1.398167 0.818563 7.368260 5.305362 -1.382969 7.624585 4.988894 -1.495127 -0.000000 -0.000002 0.000001 4.122613 -7.956567 -20.630996 13.537504 -18.599054 -58.916283 -0.000004 -20.848152 -0.000001 -0.000001 -0.000001 -0.000000 1.131733 14.756175 15.073340 23.705517 14.088145 47.523702 0.000002 14.120047 0.000005 -0.000001 -0.000000 0.000001 -14.692492 33.823824 11.707232 20.453959 9.715448 7.550009 -4.968376 12.266262 -6.392225 -4.928535 -0.000046 -0.000003 0.000001 -0.000001 -0.000000 -19.243081 -17.718433 -4.474395 44.930231 -0.708478 1.728403 -1.455564 -27.037254 0.332627 -12.840972 -0.438155 4.808404 0.000000 -0.000000 0.000000 
-4.163946 96.434738 -9.275490 -7.618613 48.517726 2.348200 3.668376 2.505408 2.547357 1.173733 1.918429 4.783072 1.259557 1.456212 0.806733 7.216272 4.900993 -1.232976 7.448356 4.604085 -1.329240 0.000002 0.000001 -0.000000 4.425576 -7.516502 -20.934031 13.493830 -19.127654 -58.872296 -0.000001 -20.160022 -0.000001 -0.000002 0.000000 -0.000000 1.125858 14.700281 15.103754 22.939312 14.573966 48.118355 0.000003 13.661038 0.000016 -0.000000 -0.000000 0.000001 -14.607377 33.842904 11.743899 19.799706 9.699299 7.745198 -4.696872 10.006362 -6.392266 -4.928536 -0.000019 0.000003 0.000001 0.000000 -0.000000 -18.507367 -16.246303 -3.250822 43.028426 -0.337836 0.688616 -1.120093 -26.682279 1.549236 -12.168470 -0.341681 4.256318 0.000001 -0.000000 0.000000 
-4.098904 96.525139 -8.834260 -7.951031 50.776644 2.620306 3.810118 2.440269 2.506275 1.276727 1.974017 4.630103 1.371744 1.524678 0.841454 7.042474 4.486791 -1.058823 7.249936 4.211699 -1.139828 0.000001 0.000002 -0.000000 4.695779 -7.143400 -21.202953 13.418917 -19.695445 -58.786496 -0.000007 -19.409110 -0.000001 -0.000005 0.000000 0.000000 1.119210 14.676459 15.136821 22.110019 15.284053 48.781395 0.000015 13.179203 -0.000005 -0.000000 -0.000000 -0.000001 -14.561040 33.861346 11.813499 19.050974 9.683921 7.914991 -4.378954 7.663989 -6.383214 -4.928531 -0.000007 -0.000002 -0.000000 0.000001 -0.000000 -17.572221 -14.544693 -1.768258 40.415476 -0.149477 -0.682742 -0.720791 -27.107388 2.902950 -11.186240 -0.221699 3.434343 0.000000 -0.000000 0.000000 
-4.017248 96.623657 -8.385237 -8.268531 53.143305 2.887036 3.955099 2.353593 2.434855 1.379745 1.982280 4.473158 1.478368 1.553931 0.918483 6.853945 4.064428 -0.864609 7.036477 3.812995 -0.930848 0.000000 0.000000 0.000000 4.910127 -6.870243 -21.384072 13.303391 -20.300613 -58.712422 -0.000000 -18.594994 0.000013 0.000001 -0.000000 0.000001 1.111762 14.682873 15.172669 21.255081 16.184587 49.490413 0.000004 12.703059 0.000001 0.000000 -0.000000 -0.000002 -14.535621 33.867961 11.872182 18.217076 9.669672 8.052853 -4.014690 5.214792 -6.342989 -4.928544 0.000025 -0.000002 0.000000 0.000000 -0.000000 -16.440544 -12.705506 -0.237803 37.109736 -0.103833 -2.257263 -0.107476 -27.307306 4.315868 -10.044899 -0.118296 2.512571 0.000001 -0.000000 0.000000 
-3.915184 96.713676 -7.946646 -8.586731 55.638905 3.184348 4.079253 2.230878 2.324885 1.458616 1.899034 4.307380 1.553457 1.498753 1.021083 6.658858 3.636048 -0.657629 6.816232 3.409522 -0.709471 0.000000 0.000001 -0.000000 5.047428 -6.726800 -21.406776 13.116405 -20.912960 -58.728296 -0.000004 -17.716496 0.000016 0.000003 -0.000000 0.000001 1.103892 14.711534 15.209578 20.398744 17.222453 50.237797 0.000021 12.244008 0.000003 0.000000 -0.000000 -0.000000 -14.566321 33.834237 11.904040 17.414956 9.661737 8.149578 -3.665304 2.669946 -6.261823 -4.928535 -0.000030 0.000003 0.000000 -0.000000 -0.000000 -15.111283 -10.822315 1.112182 33.118727 -0.173457 -3.838991 0.752838 -26.232127 5.736511 -8.904939 -0.046663 1.580994 0.000000 0.000002 0.000000 
-3.782740 96.780083 -7.533257 -8.873014 58.254909 3.535090 4.161867 2.067462 2.168715 1.494971 1.705077 4.123117 1.578645 1.338111 1.128078 6.464994 3.204857 -0.446378 6.597238 3.003885 -0.484079 0.000002 0.000001 0.000000 5.093706 -6.732789 -21.201718 12.817359 -21.486657 -58.917417 -0.000010 -16.774460 0.000027 -0.000001 0.000000 0.000000 1.096210 14.752642 15.244870 19.550792 18.339661 51.025861 0.000018 11.798588 0.000010 0.000000 0.000000 -0.000001 -14.671318 33.734977 11.872284 16.754343 9.666500 8.149164 -3.393611 0.070780 -6.111011 -4.928519 -0.000005 0.000001 0.000000 -0.000001 -0.000000 -13.633325 -8.938070 2.054335 28.500617 -0.361209 -5.174685 1.733595 -23.158813 6.949606 -7.878887 -0.007617 0.640215 0.000000 -0.000000 -0.000000 
-3.363126 96.799683 -6.657237 -9.753807 61.869923 4.404993 4.193289 1.869555 1.950306 1.484300 1.417693 3.913284 1.551461 1.087536 1.223392 6.279441 2.775441 -0.239545 6.386924 2.600029 -0.263441 0.000000 -0.000000 0.000000 5.046823 -6.895121 -20.731038 12.386130 -21.937844 -59.336647 -0.000013 -15.692576 0.000007 -0.000008 -0.000000 0.000000 1.089328 14.797695 15.275911 18.710349 19.484349 51.859847 0.000007 11.354413 -0.000001 0.000002 -0.000000 0.000000 -14.923362 33.631168 12.189192 16.512433 9.681770 8.331752 -3.491130 -3.588920 -6.327088 -4.928529 -0.000013 -0.000003 0.000000 -0.000000 -0.000000 -11.219064 -8.532583 2.363906 24.527619 -0.721920 -5.254959 0.380628 -18.568872 6.616908 -7.204982 0.000019 0.000001 -0.000000 -0.000005 0.000000 
-2.929034 96.744942 -5.869570 -10.788162 65.240464 5.539836 4.176090 1.653246 1.679165 1.437504 1.085429 3.679114 1.486195 0.794160 1.302200 6.108787 2.354256 -0.045893 6.192524 2.203879 -0.056562 0.000000 -0.000001 0.000001 4.917332 -7.208678 -20.011638 11.828366 -22.212892 -59.994688 -0.000007 -14.435569 0.000009 -0.000002 0.000000 -0.000000 1.083838 14.840959 15.300042 17.872769 20.616082 52.740433 0.000002 10.897047 0.000009 -0.000000 0.000000 -0.000000 -15.377064 33.373592 12.510057 16.854093 9.698533 8.395984 -3.884332 -6.840139 -6.531274 -4.928531 -0.000026 0.000004 0.000000 0.000000 -0.000000 -8.562144 -8.766968 2.261331 20.368630 -0.048556 -4.850376 -1.488358 -12.940406 5.747617 -7.226426 -0.000013 0.000007 -0.000000 -0.000002 0.000000 
-2.484298 96.638931 -5.136199 -11.999085 68.316269 6.911910 4.121793 1.440610 1.395346 1.374866 0.766734 3.431155 1.406355 0.516329 1.370829 5.959354 1.949702 0.125782 6.021126 1.823232 0.127375 0.000001 -0.000000 0.000000 4.723448 -7.660504 -19.118439 11.171486 -22.322098 -60.847778 -0.000013 -13.070577 -0.000001 -0.000003 0.000001 -0.000000 1.080365 14.879753 15.314454 17.037311 21.705991 53.657963 0.000014 10.416757 0.000014 0.000003 0.000000 -0.000001 -15.948429 33.037321 12.835736 17.792045 8.370180 8.365682 -4.474328 -8.352057 -6.645682 -4.928528 -0.000029 -0.000005 0.000000 0.000000 -0.000000 -5.685698 -9.370307 2.051271 15.863651 0.952295 -4.186378 -2.641662 -7.447541 4.959785 -7.252176 -0.000025 0.000004 0.000000 0.000004 0.000000 
-2.039187 96.500862 -4.419351 -13.201436 70.615598 8.297602 4.045356 1.250473 1.144874 1.316558 0.505799 3.185653 1.333995 0.298168 1.441377 5.836632 1.571627 0.267385 5.879046 1.467209 0.279828 0.000001 0.000000 -0.000000 4.482610 -8.234978 -18.159639 10.465195 -22.291820 -61.816320 0.000002 -11.664384 -0.000006 0.000000 0.000000 0.000000 1.079529 14.913559 15.316264 16.213501 22.733690 54.589160 0.000017 9.912675 0.000009 0.000003 -0.000000 -0.000000 -16.496367 32.715742 13.259304 19.012410 6.231966 8.257054 -5.099138 -8.308135 -6.750845 -4.928540 0.000003 0.000001 0.000001 -0.000001 -0.000000 -3.266097 -10.006599 1.944846 12.298204 1.763924 -3.565436 -3.335627 -3.310146 4.363614 -7.273797 0.000012 0.000009 0.000000 -0.000001 0.000000 
-1.601992 96.437820 -3.712933 -14.525132 72.722431 9.739452 3.959652 1.095541 0.972268 1.275384 0.319042 2.958906 1.282109 0.155876 1.524251 5.744051 1.229737 0.373231 5.770492 1.144928 0.394690 -0.000000 -0.000000 0.000000 4.205053 -8.918847 -17.237710 9.760415 -22.158256 -62.818561 -0.000009 -10.278719 0.000001 -0.000000 0.000000 0.000000 1.081904 14.943699 15.302660 15.423645 23.683835 55.498432 0.000022 9.395249 0.000009 0.000002 0.000000 -0.000001 -16.829224 32.622073 13.657774 19.581521 4.048860 8.174865 -5.359410 -8.284605 -6.812552 -4.928531 -0.000003 -0.000004 0.000001 0.000000 -0.000000 -1.896179 -10.308079 2.130664 10.938922 0.853280 -3.261135 -4.031845 -1.689725 4.052073 -7.282879 -0.000008 -0.000002 0.000001 -0.000002 0.000000 
